<?xml version="1.0" encoding="UTF-8"?> <svg xmlns="http://www.w3.org/2000/svg" width="32" height="32" viewBox="0 0 32 32" fill="none"><path fill-rule="evenodd" clip-rule="evenodd" d="M8.01676 3.2501C8.01676 2.75304 8.41971 2.3501 8.91676 2.3501H16.0001C16.4972 2.3501 16.9001 2.75304 16.9001 3.2501V5.18343H18.8363C21.7043 5.18343 24.4548 6.32274 26.4828 8.35073C28.5108 10.3787 29.6501 13.1293 29.6501 15.9973V25.1234C29.6501 25.7184 29.5329 26.3075 29.3051 26.8572C29.0774 27.4069 28.7436 27.9063 28.3228 28.3269C27.902 28.7475 27.4025 29.0811 26.8527 29.3086C26.3031 29.5361 25.714 29.6531 25.1192 29.6529C25.1191 29.6529 25.1193 29.6529 25.1192 29.6529H6.88101C5.68012 29.652 4.52795 29.1746 3.67863 28.3257C2.8293 27.4767 2.3515 26.3254 2.3501 25.1245L2.3501 9.71293C2.3501 9.11796 2.46732 8.52882 2.69505 7.97916C2.92279 7.4295 3.25659 6.93009 3.67738 6.50947C4.09817 6.08884 4.59771 5.75524 5.14746 5.52771C5.6971 5.30023 6.28617 5.18324 6.88103 5.18343C6.88114 5.18343 6.88092 5.18343 6.88103 5.18343H8.01676V3.2501ZM9.81676 4.1501V6.08343C9.81676 6.58049 9.41382 6.98343 8.91676 6.98343H6.88101C6.52248 6.98329 6.16708 7.05379 5.8358 7.1909C5.50452 7.328 5.2035 7.52903 4.94993 7.78251C4.69636 8.03598 4.49521 8.33692 4.35797 8.66815C4.22073 8.99938 4.1501 9.3544 4.1501 9.71293V25.1229C4.15107 25.8468 4.43916 26.5408 4.95117 27.0526C5.4633 27.5645 6.1576 27.8524 6.88172 27.8529H25.1192C25.4777 27.8531 25.8331 27.7826 26.1644 27.6455C26.4957 27.5084 26.7967 27.3073 27.0503 27.0539C27.3038 26.8004 27.505 26.4994 27.6422 26.1682C27.7795 25.837 27.8501 25.482 27.8501 25.1234V15.9973C27.8501 13.6066 26.9004 11.3139 25.21 9.62352C23.5196 7.9331 21.2269 6.98343 18.8363 6.98343H16.0001C15.503 6.98343 15.1001 6.58049 15.1001 6.08343V4.1501H9.81676ZM16.6357 11.113L16.0001 11.7501L15.3635 11.1139C15.7146 10.7625 16.2841 10.7621 16.6357 11.113ZM16.001 13.063C15.6158 13.4891 15.1055 14.0807 14.5969 14.7497C14.084 15.4243 13.5866 16.1598 13.2203 16.8711C12.8465 17.5968 12.654 18.2123 12.6501 18.6727C12.6667 20.5288 14.1592 22.0233 16.0001 22.0233C17.8476 22.0233 19.3501 20.5209 19.3501 18.6733C19.3501 18.2149 19.16 17.5993 18.7857 16.8712C18.4202 16.1605 17.9227 15.4254 17.409 14.7508C16.8993 14.0813 16.3873 13.4893 16.001 13.063ZM20.3864 16.0481C20.8089 16.8696 21.1501 17.7902 21.1501 18.6733C21.1501 21.515 18.8417 23.8233 16.0001 23.8233C13.1509 23.8233 10.8706 21.5103 10.8501 18.6799L10.85 18.6686C10.8547 17.7873 11.197 16.8682 11.62 16.0469C12.0519 15.2085 12.6161 14.3809 13.1639 13.6603C13.7141 12.9367 14.2616 12.3028 14.6705 11.8506C14.8755 11.624 15.0467 11.4418 15.1676 11.3154C15.2281 11.2522 15.276 11.2029 15.3093 11.1688L15.3481 11.1294L15.3588 11.1186L15.3619 11.1155L15.3635 11.1139C15.3636 11.1138 15.3635 11.1139 16.0001 11.7501C16.6357 11.113 16.6356 11.1128 16.6357 11.113L16.6404 11.1176L16.6512 11.1284L16.6901 11.1679C16.7235 11.202 16.7716 11.2513 16.8323 11.3146C16.9536 11.4411 17.1254 11.6233 17.3309 11.85C17.741 12.3023 18.29 12.9365 18.8412 13.6603C19.39 14.3811 19.955 15.2091 20.3864 16.0481Z" fill="#808080"></path></svg> 