<?xml version="1.0" encoding="UTF-8"?>
<svg xmlns="http://www.w3.org/2000/svg" width="32" height="32" viewBox="0 0 32 32" fill="none"><path fill-rule="evenodd" clip-rule="evenodd" d="M28.0318 2.59221C29.1231 2.52802 30.0434 3.39573 30.0434 4.48893V26.9077C30.0434 28.0229 29.0873 28.8984 27.9764 28.8003L10.5478 27.2625C9.5915 27.1781 8.85252 26.395 8.81622 25.4433L1.08559 10.9484C0.43228 9.72339 1.27052 8.23417 2.65667 8.15716L8.81483 7.81504V5.51414C8.81483 4.50814 9.59899 3.6765 10.6033 3.61742L28.0318 2.59221ZM8.81483 9.61782L2.75652 9.95439C2.68356 9.95845 2.63945 10.0368 2.67383 10.1013L8.81483 21.6157V9.61782ZM10.6148 24.9907V9.51782L21.0277 8.93932C21.0715 8.93689 21.1118 8.96326 21.127 9.00435L27.7463 26.8254C27.7719 26.8944 27.7168 26.9665 27.6435 26.9598L10.9046 25.4381C10.8711 25.4351 10.8413 25.4153 10.8254 25.3856L10.6148 24.9907ZM28.2434 22.9942L22.8144 8.37762C22.5244 7.59678 21.7596 7.09589 20.9279 7.1421L10.6148 7.71504V5.51414C10.6148 5.4612 10.6561 5.41743 10.709 5.41432L28.1375 4.38911C28.195 4.38573 28.2434 4.4314 28.2434 4.48893V22.9942ZM17.7795 15.3634C18.131 15.7149 18.131 16.2847 17.7795 16.6362L15.4938 18.9219C15.1423 19.2734 14.5725 19.2734 14.221 18.9219C13.8695 18.5704 13.8695 18.0006 14.221 17.6491L16.5067 15.3634C16.8582 15.0119 17.428 15.0119 17.7795 15.3634ZM22.3507 16.5062C22.7021 16.8577 22.7021 17.4275 22.3507 17.779L16.6364 23.4933C16.2849 23.8448 15.7151 23.8448 15.3636 23.4933C15.0121 23.1418 15.0121 22.572 15.3636 22.2205L21.0779 16.5062C21.4293 16.1547 21.9992 16.1547 22.3507 16.5062Z" fill="#808080"/></svg>